<svg xmlns="http://www.w3.org/2000/svg" width="1200" height="480" viewBox="0 0 1200 480">
<defs>
<linearGradient id="bg" x1="0" y1="0" x2="1" y2="1">
<stop offset="0" stop-color="#0B0F17"/>
<stop offset="1" stop-color="#101B2E"/>
</linearGradient>
<radialGradient id="glow" cx="0.85" cy="0.2" r="0.7">
<stop offset="0" stop-color="#8CC5FF" stop-opacity="0.18"/>
<stop offset="1" stop-color="#8CC5FF" stop-opacity="0"/>
</radialGradient>
</defs>
<rect width="1200" height="480" fill="url(#bg)"/>
<rect width="1200" height="480" fill="url(#glow)"/>
<line x1="0" y1="80" x2="1200" y2="80" stroke="#8CC5FF" stroke-opacity="0.06" stroke-width="1"/><line x1="0" y1="160" x2="1200" y2="160" stroke="#8CC5FF" stroke-opacity="0.06" stroke-width="1"/><line x1="0" y1="240" x2="1200" y2="240" stroke="#8CC5FF" stroke-opacity="0.06" stroke-width="1"/><line x1="0" y1="320" x2="1200" y2="320" stroke="#8CC5FF" stroke-opacity="0.06" stroke-width="1"/><line x1="0" y1="400" x2="1200" y2="400" stroke="#8CC5FF" stroke-opacity="0.06" stroke-width="1"/><line x1="120" y1="0" x2="120" y2="480" stroke="#8CC5FF" stroke-opacity="0.05" stroke-width="1"/><line x1="240" y1="0" x2="240" y2="480" stroke="#8CC5FF" stroke-opacity="0.05" stroke-width="1"/><line x1="360" y1="0" x2="360" y2="480" stroke="#8CC5FF" stroke-opacity="0.05" stroke-width="1"/><line x1="480" y1="0" x2="480" y2="480" stroke="#8CC5FF" stroke-opacity="0.05" stroke-width="1"/><line x1="600" y1="0" x2="600" y2="480" stroke="#8CC5FF" stroke-opacity="0.05" stroke-width="1"/><line x1="720" y1="0" x2="720" y2="480" stroke="#8CC5FF" stroke-opacity="0.05" stroke-width="1"/><line x1="840" y1="0" x2="840" y2="480" stroke="#8CC5FF" stroke-opacity="0.05" stroke-width="1"/><line x1="960" y1="0" x2="960" y2="480" stroke="#8CC5FF" stroke-opacity="0.05" stroke-width="1"/><line x1="1080" y1="0" x2="1080" y2="480" stroke="#8CC5FF" stroke-opacity="0.05" stroke-width="1"/>
<circle cx="1010" cy="120" r="150" fill="none" stroke="#8CC5FF" stroke-opacity="0.25"/>
<circle cx="1010" cy="120" r="190" fill="none" stroke="#8CC5FF" stroke-opacity="0.12" stroke-dasharray="4 7"/>
<circle cx="1010" cy="-30" r="6" fill="#8CC5FF"/>
<polyline points="80,333 190,324 300,268 410,263 520,217 630,188 740,184 850,146 960,136" fill="none" stroke="#8CC5FF" stroke-width="3" stroke-linejoin="round" stroke-linecap="round"/>
<circle cx="80" cy="333" r="5" fill="#8CC5FF"/><circle cx="300" cy="268" r="5" fill="#8CC5FF"/><circle cx="520" cy="217" r="5" fill="#8CC5FF"/><circle cx="740" cy="184" r="5" fill="#8CC5FF"/><circle cx="960" cy="136" r="5" fill="#8CC5FF"/>
<rect x="64" y="56" width="40" height="40" fill="none" stroke="#8CC5FF" stroke-width="2"/>
<text x="84" y="83" text-anchor="middle" font-family="Arial, sans-serif" font-size="18" font-weight="700" fill="#8CC5FF">SJ</text>
<text x="122" y="82" font-family="Arial, sans-serif" font-size="15" letter-spacing="4" fill="#8493A8">SAFIJAMIL.COM</text>
<text x="66" y="420" font-family="Arial, sans-serif" font-size="26" font-weight="700" letter-spacing="8" fill="#8CC5FF">STRATEGY</text>
<text x="1130" y="428" text-anchor="end" font-family="Arial, sans-serif" font-size="88" font-weight="700" fill="#8CC5FF" fill-opacity="0.14">07</text>
</svg>